<svg width="12" height="10" viewBox="0 0 12 10" fill="none" xmlns="http://www.w3.org/2000/svg">
<path d="M12 5C12 5.13261 11.9473 5.25979 11.8535 5.35356C11.7598 5.44733 11.6326 5.5 11.5 5.5H1.70687L5.35375 9.14625C5.4002 9.19271 5.43705 9.24786 5.46219 9.30856C5.48733 9.36925 5.50027 9.43431 5.50027 9.5C5.50027 9.5657 5.48733 9.63076 5.46219 9.69145C5.43705 9.75215 5.4002 9.8073 5.35375 9.85375C5.30729 9.90021 5.25214 9.93706 5.19144 9.9622C5.13075 9.98734 5.06569 10.0003 5 10.0003C4.9343 10.0003 4.86925 9.98734 4.80855 9.9622C4.74785 9.93706 4.6927 9.90021 4.64625 9.85375L0.146247 5.35375C0.0997583 5.30732 0.0628789 5.25217 0.0377167 5.19147C0.0125546 5.13077 -0.000396729 5.06571 -0.000396729 5C-0.000396729 4.9343 0.0125546 4.86923 0.0377167 4.80853C0.0628789 4.74783 0.0997583 4.69269 0.146247 4.64625L4.64625 0.146253C4.74007 0.052433 4.86731 -0.000274659 5 -0.000274658C5.13268 -0.000274657 5.25993 0.052433 5.35375 0.146253C5.44757 0.240074 5.50027 0.367321 5.50027 0.500003C5.50027 0.632685 5.44757 0.759933 5.35375 0.853753L1.70687 4.5H11.5C11.6326 4.5 11.7598 4.55268 11.8535 4.64645C11.9473 4.74022 12 4.86739 12 5Z" fill="#EDEDED"/>
</svg>
