<svg width="28" height="24" viewBox="0 0 28 24" fill="none" xmlns="http://www.w3.org/2000/svg">
<path d="M27.125 4.7075L24.7075 2.2925C24.5199 2.10486 24.2654 1.99944 24 1.99944C23.7346 1.99944 23.4801 2.10486 23.2925 2.2925C23.1049 2.48014 22.9994 2.73464 22.9994 3C22.9994 3.26536 23.1049 3.51986 23.2925 3.7075L25.7075 6.125C25.8941 6.31178 25.9992 6.56475 26 6.82875V17C26 17.2652 25.8946 17.5196 25.7071 17.7071C25.5196 17.8946 25.2652 18 25 18C24.7348 18 24.4804 17.8946 24.2929 17.7071C24.1054 17.5196 24 17.2652 24 17V12C24 11.2044 23.6839 10.4413 23.1213 9.87868C22.5587 9.31607 21.7956 9 21 9H19V3C19 2.20435 18.6839 1.44129 18.1213 0.87868C17.5587 0.316071 16.7956 0 16 0H6C5.20435 0 4.44129 0.316071 3.87868 0.87868C3.31607 1.44129 3 2.20435 3 3V22H1C0.734784 22 0.48043 22.1054 0.292893 22.2929C0.105357 22.4804 0 22.7348 0 23C0 23.2652 0.105357 23.5196 0.292893 23.7071C0.48043 23.8946 0.734784 24 1 24H21C21.2652 24 21.5196 23.8946 21.7071 23.7071C21.8946 23.5196 22 23.2652 22 23C22 22.7348 21.8946 22.4804 21.7071 22.2929C21.5196 22.1054 21.2652 22 21 22H19V11H21C21.2652 11 21.5196 11.1054 21.7071 11.2929C21.8946 11.4804 22 11.7348 22 12V17C22 17.7956 22.3161 18.5587 22.8787 19.1213C23.4413 19.6839 24.2044 20 25 20C25.7956 20 26.5587 19.6839 27.1213 19.1213C27.6839 18.5587 28 17.7956 28 17V6.82875C28.0015 6.4349 27.9249 6.04466 27.7748 5.68057C27.6246 5.31648 27.4037 4.98575 27.125 4.7075ZM5 22V3C5 2.73478 5.10536 2.48043 5.29289 2.29289C5.48043 2.10536 5.73478 2 6 2H16C16.2652 2 16.5196 2.10536 16.7071 2.29289C16.8946 2.48043 17 2.73478 17 3V22H5ZM15 10C15 10.2652 14.8946 10.5196 14.7071 10.7071C14.5196 10.8946 14.2652 11 14 11H8C7.73478 11 7.48043 10.8946 7.29289 10.7071C7.10536 10.5196 7 10.2652 7 10C7 9.73478 7.10536 9.48043 7.29289 9.29289C7.48043 9.10536 7.73478 9 8 9H14C14.2652 9 14.5196 9.10536 14.7071 9.29289C14.8946 9.48043 15 9.73478 15 10Z" fill="#4ADE80"/>
</svg>
