<svg width="151" height="130" viewBox="0 0 151 130" fill="none" xmlns="http://www.w3.org/2000/svg">
<g clip-path="url(#clip0_56_299)">
<path d="M0.540034 89.9665C-0.195201 83.167 2.19238 77.5463 6.51658 72.6032C7.458 71.5271 8.45056 70.4955 9.4257 69.4491C9.80424 69.0429 10.1323 68.6576 9.67692 68.0841C9.2578 67.5563 9.68953 67.1896 9.9773 66.8003C11.6131 64.5874 13.481 62.5677 15.2688 60.4824C15.8916 59.7559 16.2776 59.0319 16.1383 58.0423C15.825 55.8179 16.7925 54.29 18.7563 53.2779C20.1272 52.5714 21.4469 51.7661 22.7964 51.0175C23.3708 50.6989 23.831 50.3223 24.0725 49.6625C27.0582 41.5059 32.0216 34.6613 38.2288 28.6924C47.0359 20.2234 57.4906 15.0242 69.6076 13.2472C83.4717 11.2139 96.5001 13.7346 108.374 21.1091C122.74 30.0306 132.322 42.6732 136.37 59.2267C138.631 68.4737 137.929 77.649 135.139 86.7006C135.019 87.0898 134.817 87.4655 134.941 87.8975C135.32 88.1737 135.749 88.0539 136.149 88.0557C139.012 88.0692 141.882 88.194 144.736 88.0311C148.224 87.8319 151.156 90.6107 150.183 94.9739C149.309 98.8943 146.909 101.88 143.855 104.34C139.172 108.111 133.789 109.929 127.763 109.922C111.339 109.904 94.9153 109.914 78.4914 109.924C73.4617 109.927 68.8326 111.277 64.6699 114.138C61.8162 116.099 59.5085 118.628 57.2949 121.251C56.6584 122.005 55.9965 122.714 55.1019 123.17C53.4887 123.991 51.7033 123.78 50.3643 122.602C49.0959 121.485 48.6546 119.588 49.2453 117.958C49.8817 116.202 51.1602 114.899 52.3784 113.578C57.5574 107.962 63.6624 103.891 71.2956 102.405C73.7178 101.933 76.1712 101.98 78.6079 101.972C94.2405 101.925 109.873 101.931 125.506 101.948C128.702 101.952 131.817 101.679 134.707 100.155C136.798 99.0532 138.611 97.6217 140.129 95.7753C139.801 95.4661 139.45 95.6331 139.143 95.6331C112.172 95.6288 85.2003 95.6605 58.2293 95.5871C56.2715 95.5818 54.7139 96.0183 53.1527 97.1172C49.1503 99.9344 45.0852 102.659 40.6497 104.784C35.1333 107.427 29.367 109.005 23.2174 108.754C15.6774 108.446 9.19054 105.842 4.49016 99.656C2.33245 96.8166 0.927924 93.6474 0.540034 89.9665ZM45.4832 85.3469C46.4626 85.3483 47.4428 85.3256 48.4211 85.3578C49.4462 85.3915 50.0623 84.9789 50.2331 83.9325C51.1289 78.4432 56.4132 74.181 63.0609 75.5224C67.4479 76.4077 69.9502 79.4114 71.1014 83.6358C71.5611 85.3225 71.6115 85.346 73.3339 85.3457C82.2619 85.3438 91.1898 85.3423 100.118 85.3421C102.047 85.342 102.047 85.3445 102.539 83.4403C104.025 77.6888 109.437 74.2545 115.244 75.513C119.763 76.4924 122.366 79.4856 123.4 83.8966C123.627 84.8647 124.122 85.2978 125.078 85.3875C128.521 85.7104 130.49 83.9819 130.515 80.5467C130.535 77.8355 130.477 75.1231 130.538 72.4132C130.581 70.488 129.921 68.9084 128.637 67.5067C123.116 61.4833 117.549 55.5003 112.144 49.3754C110.03 46.9805 107.651 45.8674 104.458 45.9385C98.6599 46.0677 92.8565 45.9588 87.0553 45.9816C86.2207 45.9849 85.5827 45.7812 85.1759 45.0261C83.6764 42.2427 81.242 41.3407 78.2108 41.358C69.2455 41.4092 60.2797 41.3714 51.314 41.3754C48.7149 41.3766 46.1155 41.3847 43.5166 41.4198C40.3876 41.4619 37.3337 44.2595 37.4675 47.4838C37.5955 50.5662 37.492 53.6581 37.4953 56.7458C37.5036 64.5783 37.4963 72.411 37.534 80.2434C37.549 83.355 39.6385 85.3444 42.7715 85.3508C43.6003 85.3525 44.429 85.3483 45.4832 85.3469ZM31.339 100.215C34.6224 99.2255 37.6702 97.762 40.7684 95.6582C39.7579 95.5817 39.0846 95.4604 38.4185 95.4915C33.4105 95.7259 28.4005 95.5598 23.3917 95.5911C22.3378 95.5977 21.2922 95.4845 20.2927 95.0775C18.5332 94.361 17.5221 92.7494 17.8325 91.0962C18.167 89.3151 19.6354 88.1061 21.5287 88.0665C22.2442 88.0515 22.9606 88.0772 23.6759 88.0584C24.8589 88.0274 24.9712 87.8629 24.6495 86.6939C24.5797 86.4402 24.4943 86.1904 24.4095 85.9411C23.2154 82.4328 22.3659 78.8308 22.3034 75.1315C22.2706 73.1907 21.7761 71.8632 20.0203 70.9232C19.1701 70.4681 18.765 70.3903 18.0779 71.1789C17.3451 72.0201 17.0163 73.5863 15.3182 73.1855C15.2003 73.1577 14.9917 73.4623 14.8421 73.6276C13.1468 75.5003 11.5547 77.4579 10.1953 79.5882C8.78034 81.8056 7.76028 84.1944 7.71579 86.8658C7.61712 92.7903 11.7554 98.265 17.8281 100.281C22.2671 101.755 26.7186 101.518 31.339 100.215ZM30.1645 53.2795C29.54 52.5974 29.1411 51.7044 28.2553 51.1995C27.5549 51.7176 26.9613 52.5222 25.9163 52.0624C25.8395 52.0286 25.6723 52.2133 25.5415 52.2865C23.9016 53.204 22.2694 54.1359 20.6176 55.0315C18.6909 56.0763 18.3663 56.6204 18.8564 58.7362C19.0531 59.5851 18.8455 60.1377 18.3083 60.7626C16.5443 62.8144 14.8389 64.9166 13.1078 66.9967C12.8299 67.3306 12.5652 67.6413 13.0034 68.0536C13.875 68.8738 14.7736 69.6579 15.8526 70.4074C16.66 69.4609 17.4459 68.5641 18.2025 67.6433C18.675 67.0684 19.0672 67.0147 19.6986 67.511C21.0566 68.5785 22.4735 69.5764 23.9122 70.5338C24.9609 71.2318 25.9976 71.1449 26.637 70.2578C28.3948 67.8193 30.0826 65.3303 31.7951 62.8593C32.1615 62.3305 32.1908 61.7991 31.9977 61.1577C31.4748 59.4199 30.6908 57.7965 29.9475 56.1544C29.5928 55.3709 29.2056 54.6301 30.2046 54.0116C30.4238 53.8759 30.3845 53.6205 30.1645 53.2795ZM54.5724 86.3183C54.6221 86.5764 54.6661 86.8357 54.7222 87.0924C55.2798 89.642 57.8969 91.8372 60.4556 91.9038C63.1447 91.9737 65.8993 90.018 66.54 87.5761C67.2101 85.0225 66.5106 82.9016 64.4742 81.2365C62.5048 79.6262 60.3054 79.3714 58.0399 80.4415C55.6797 81.5563 54.5376 83.5232 54.5724 86.3183ZM114.533 91.6672C117.384 90.6695 118.98 88.6413 119.008 85.9797C119.047 82.3938 116.02 79.6435 112.282 79.8689C109.002 80.0667 106.397 83.4617 106.945 86.8254C107.493 90.1924 110.98 92.4856 114.533 91.6672ZM31.6491 52.3637C32.5644 52.4215 32.8198 51.9799 32.4285 51.2103C32.0735 50.5119 31.5576 49.9176 30.9209 49.4389C30.4176 49.6563 30.061 49.9469 29.874 50.4593C30.3367 51.1556 30.9373 51.7148 31.6491 52.3637ZM35.0333 49.9274C35.0285 48.8112 34.1572 48.3214 33.5126 47.614C33.1015 47.9467 32.7891 48.1996 32.4683 48.4592C32.6876 49.1767 33.2329 49.5952 33.6656 50.0952C34.1121 50.6112 34.5405 50.5911 35.0333 49.9274Z" fill="#4ADE80"/>
<path d="M56.9946 3.47615C63.0044 1.6401 69.0418 0.586444 75.2505 0.3621C92.2187 -0.251028 107.558 4.42379 121.056 14.6742C134.157 24.6234 143.001 37.5659 147.211 53.5525C147.91 56.2054 148.243 58.9327 148.692 61.6338C148.92 63.0034 147.859 64.4018 146.554 64.6904C144.968 65.0412 143.746 64.4217 143.205 62.9393C142.789 61.8006 142.774 60.5792 142.576 59.3964C140.663 47.993 135.651 38.0514 128.22 29.3016C119.638 19.198 108.977 12.1859 96.2423 8.43943C88.6246 6.19829 80.8265 5.54762 72.9037 6.13576C63.6317 6.82404 54.9652 9.48091 46.8522 13.9636C39.1425 18.2234 32.5766 23.8451 27.1084 30.7537C22.1295 37.044 18.2118 43.8912 16.0384 51.6616C15.6651 52.9964 14.9425 53.9763 13.5244 54.2706C11.4822 54.6944 9.85654 53.0187 10.3632 50.949C11.3239 47.0243 12.7707 43.2701 14.5959 39.6693C17.8537 33.2418 22.047 27.4483 26.9787 22.2273C34.9017 13.8395 44.3705 7.78159 55.3044 4.04228C55.8381 3.85975 56.3747 3.68569 56.9946 3.47615Z" fill="#4ADE80"/>
<path d="M103.91 124.541C95.1631 128.33 86.0835 129.952 76.6652 129.735C73.2387 129.655 69.85 129.168 66.5061 128.415C63.8503 127.816 62.9989 125.685 64.6974 123.484C67.3372 120.062 70.7883 117.805 75.0947 117.002C77.1012 116.627 79.1456 116.63 81.17 116.65C87.1944 116.71 93.217 116.707 99.242 116.653C108.959 116.567 118.677 116.624 128.394 116.629C128.995 116.629 129.597 116.69 130.195 116.753C131.47 116.888 132.226 117.674 132.252 118.862C132.278 120.054 131.45 121.013 130.232 121.184C129.972 121.221 129.705 121.225 129.442 121.218C123.343 121.069 117.245 121.547 111.146 121.242C110.664 121.218 110.276 121.427 109.869 121.627C107.912 122.591 105.95 123.547 103.91 124.541Z" fill="#4ADE80"/>
<path d="M45.0585 49.4704C45.9517 48.3043 47.0693 47.8441 48.4484 47.8463C57.1126 47.8601 65.7769 47.8432 74.4411 47.8544C76.6452 47.8573 77.9454 49.002 78.256 51.2054C78.3708 52.0202 78.3731 52.8553 78.3737 53.6812C78.3767 58.2752 78.3716 62.8693 78.352 67.4633C78.3429 69.5989 77.3361 71.1737 75.7094 71.4298C74.6005 71.6043 73.4537 71.6512 72.3304 71.6028C66.3043 71.3433 60.2804 71.6511 54.2559 71.6178C52.1097 71.606 49.9638 71.5467 47.8178 71.5088C45.933 71.4755 44.4595 70.2022 44.4374 68.294C44.3721 62.6465 44.4081 56.9977 44.421 51.3495C44.4225 50.7001 44.6888 50.104 45.0585 49.4704ZM66.5396 64.0608C67.1359 63.6347 67.432 63.043 67.4207 62.3228C67.3936 60.5958 67.3925 58.866 67.2829 57.1436C67.1984 55.8169 66.5745 55.209 65.2804 55.1877C62.6872 55.1451 60.0918 55.1481 57.4989 55.2037C56.188 55.2318 55.4193 56.078 55.4012 57.3632C55.3795 58.904 55.3753 60.4457 55.4018 61.9864C55.4295 63.5939 56.1624 64.3616 57.7328 64.3759C60.2518 64.3988 62.7713 64.371 65.2905 64.3587C65.6647 64.3569 66.0466 64.3625 66.5396 64.0608Z" fill="#4ADE80"/>
<path d="M91.266 50.3215C95.8603 50.3219 100.343 50.3415 104.826 50.3082C105.844 50.3007 106.67 50.5989 107.347 51.3324C110.563 54.8194 113.778 58.3078 116.986 61.8025C117.435 62.2912 117.777 62.8657 117.476 63.5439C117.144 64.2892 116.471 64.4937 115.7 64.4932C107.186 64.4878 98.6726 64.4957 90.1591 64.4797C88.5841 64.4767 87.8117 63.8201 87.7437 62.259C87.6456 60.0048 87.6761 57.7436 87.7069 55.4862C87.7166 54.7715 87.752 54.0626 87.69 53.3467C87.4947 51.0919 88.2211 50.3159 90.4764 50.3228C90.7024 50.3235 90.9284 50.3221 91.266 50.3215Z" fill="#4ADE80"/>
<path d="M26.1234 68.4453C25.6038 69.307 25.1465 69.9865 24.0654 69.2148C22.947 68.4165 22.7673 68.0064 23.5315 66.8095C24.3399 65.5434 25.3067 64.3618 24.9809 62.7047C24.9323 62.4576 25.0329 62.1685 24.6349 61.9031C23.5741 62.5902 24.1015 63.8681 23.6612 64.7597C23.1818 65.7303 22.6613 66.6806 22.1322 67.6905C21.2753 67.4141 20.6855 66.8254 20.0196 66.377C19.5917 66.0889 19.8047 65.6967 20.0421 65.3942C21.1085 64.0349 22.1922 62.6891 23.2683 61.3374C23.5039 61.0413 23.8 60.8984 24.1588 61.0608C25.8942 61.846 27.7028 62.4846 29.3631 63.569C28.403 65.2919 27.2587 66.8169 26.1234 68.4453Z" fill="#4ADE80"/>
</g>
<defs>
<clipPath id="clip0_56_299">
<rect width="150" height="129.263" fill="white" transform="translate(0.5 0.368652)"/>
</clipPath>
</defs>
</svg>
