<svg width="196" height="32" viewBox="0 0 196 32" fill="none" xmlns="http://www.w3.org/2000/svg">
<g clip-path="url(#clip0_57_284)">
<path d="M0.00993065 22.1806C-0.172083 20.4974 0.418983 19.1059 1.48947 17.8822C1.72253 17.6158 1.96824 17.3604 2.20965 17.1014C2.30336 17.0008 2.38457 16.9054 2.27184 16.7635C2.16808 16.6328 2.27496 16.542 2.3462 16.4457C2.75116 15.8978 3.21357 15.3978 3.65615 14.8816C3.81034 14.7018 3.9059 14.5225 3.8714 14.2775C3.79385 13.7269 4.03336 13.3486 4.51951 13.0981C4.85888 12.9232 5.18558 12.7238 5.51968 12.5385C5.66187 12.4596 5.77579 12.3664 5.83558 12.2031C6.57471 10.1838 7.80345 8.4894 9.34008 7.01175C11.5204 4.91517 14.1085 3.62808 17.1082 3.18815C20.5403 2.6848 23.7656 3.30882 26.7052 5.13445C30.2614 7.34302 32.6337 10.4728 33.6357 14.5708C34.1954 16.8599 34.0218 19.1313 33.331 21.3721C33.3013 21.4685 33.2513 21.5615 33.2819 21.6684C33.3758 21.7368 33.4821 21.7072 33.581 21.7076C34.2897 21.7109 35.0003 21.7418 35.7067 21.7015C36.5702 21.6522 37.2961 22.3401 37.0552 23.4203C36.8388 24.3908 36.2447 25.13 35.4887 25.7388C34.3293 26.6726 32.9967 27.1225 31.505 27.1208C27.4391 27.1162 23.3733 27.1188 19.3074 27.1212C18.0623 27.1219 16.9163 27.4562 15.8858 28.1644C15.1793 28.6499 14.6081 29.276 14.06 29.9253C13.9025 30.112 13.7386 30.2876 13.5171 30.4004C13.1178 30.6037 12.6758 30.5515 12.3443 30.2597C12.0303 29.9833 11.9211 29.5137 12.0673 29.1102C12.2249 28.6754 12.5413 28.3529 12.8429 28.0258C14.125 26.6355 15.6364 25.6278 17.526 25.2598C18.1257 25.143 18.733 25.1546 19.3363 25.1528C23.2062 25.1411 27.0763 25.1427 30.9463 25.1468C31.7373 25.1477 32.5085 25.0801 33.2241 24.7029C33.7417 24.4301 34.1904 24.0757 34.5664 23.6187C34.485 23.5421 34.3981 23.5835 34.3222 23.5834C27.6452 23.5824 20.9683 23.5902 14.2914 23.5721C13.8067 23.5707 13.4211 23.6788 13.0346 23.9508C12.0438 24.6483 11.0374 25.3228 9.9394 25.8488C8.57378 26.503 7.14628 26.8937 5.62389 26.8316C3.75731 26.7555 2.15143 26.1106 0.987815 24.5794C0.453659 23.8764 0.105956 23.0919 0.00993065 22.1806ZM11.136 21.037C11.3784 21.0374 11.6211 21.0317 11.8633 21.0397C12.117 21.0481 12.2696 20.9459 12.3118 20.6869C12.5336 19.328 13.8418 18.2728 15.4875 18.6049C16.5735 18.8241 17.193 19.5676 17.478 20.6134C17.5917 21.031 17.6042 21.0368 18.0306 21.0367C20.2408 21.0363 22.451 21.0359 24.6612 21.0358C25.1389 21.0358 25.1389 21.0364 25.2607 20.565C25.6285 19.1412 26.9683 18.291 28.4058 18.6025C29.5246 18.845 30.1688 19.586 30.4249 20.678C30.4811 20.9177 30.6036 21.0249 30.8402 21.0471C31.6927 21.127 32.18 20.6991 32.1862 19.8487C32.1912 19.1775 32.1769 18.506 32.1919 17.8352C32.2026 17.3586 32.0392 16.9675 31.7212 16.6205C30.3547 15.1294 28.9765 13.6483 27.6383 12.132C27.1151 11.5391 26.5262 11.2636 25.7357 11.2812C24.3003 11.3131 22.8636 11.2862 21.4275 11.2918C21.2209 11.2927 21.0629 11.2422 20.9622 11.0553C20.591 10.3662 19.9883 10.1429 19.2379 10.1472C17.0185 10.1599 14.799 10.1505 12.5794 10.1515C11.936 10.1518 11.2925 10.1538 10.6491 10.1625C9.8745 10.1729 9.11848 10.8655 9.15162 11.6637C9.1833 12.4268 9.15768 13.1922 9.15849 13.9566C9.16056 15.8956 9.15875 17.8346 9.16808 19.7736C9.17179 20.5439 9.68908 21.0364 10.4647 21.038C10.6698 21.0384 10.875 21.0374 11.136 21.037ZM7.63446 24.7177C8.4473 24.4728 9.20179 24.1105 9.96877 23.5897C9.71863 23.5707 9.55195 23.5407 9.38705 23.5484C8.14728 23.6064 6.90701 23.5653 5.66705 23.573C5.40615 23.5747 5.14731 23.5467 4.89986 23.4459C4.46428 23.2685 4.21396 22.8696 4.29083 22.4603C4.37364 22.0194 4.73713 21.7201 5.20585 21.7103C5.38297 21.7066 5.56032 21.7129 5.7374 21.7083C6.03027 21.7006 6.05805 21.6599 5.97841 21.3705C5.96113 21.3077 5.94 21.2458 5.919 21.1841C5.62339 20.3156 5.4131 19.4239 5.39763 18.5081C5.38952 18.0276 5.26709 17.699 4.83242 17.4663C4.62195 17.3536 4.52166 17.3344 4.35157 17.5296C4.17015 17.7379 4.08876 18.1256 3.66839 18.0264C3.63919 18.0195 3.58756 18.0949 3.55052 18.1358C3.13083 18.5994 2.73671 19.084 2.40018 19.6114C2.04988 20.1603 1.79736 20.7517 1.78635 21.413C1.76192 22.8797 2.78638 24.235 4.28973 24.7341C5.38864 25.0989 6.49065 25.0402 7.63446 24.7177ZM7.3437 13.0985C7.18909 12.9296 7.09036 12.7085 6.87107 12.5836C6.69768 12.7118 6.55071 12.911 6.29203 12.7972C6.27301 12.7888 6.23162 12.8345 6.19924 12.8526C5.79327 13.0798 5.38921 13.3105 4.98029 13.5322C4.50331 13.7908 4.42297 13.9255 4.5443 14.4493C4.59299 14.6595 4.5416 14.7963 4.4086 14.951C3.9719 15.4589 3.54974 15.9793 3.12118 16.4943C3.05238 16.5769 2.98686 16.6539 3.09534 16.7559C3.31112 16.959 3.53357 17.1531 3.80067 17.3386C4.00055 17.1043 4.19511 16.8823 4.38243 16.6544C4.49939 16.512 4.59648 16.4987 4.75279 16.6216C5.08897 16.8859 5.43974 17.1329 5.79591 17.3699C6.05552 17.5427 6.31215 17.5212 6.47045 17.3016C6.90559 16.6979 7.32342 16.0818 7.74737 15.47C7.83808 15.3391 7.84532 15.2076 7.79753 15.0488C7.66807 14.6186 7.47398 14.2167 7.28998 13.8102C7.20218 13.6162 7.10633 13.4328 7.35362 13.2797C7.40789 13.2461 7.39817 13.1829 7.3437 13.0985ZM13.3861 21.2775C13.3984 21.3414 13.4093 21.4056 13.4232 21.4691C13.5612 22.1003 14.2091 22.6437 14.8425 22.6602C15.5082 22.6775 16.1901 22.1934 16.3488 21.5889C16.5146 20.9567 16.3415 20.4317 15.8373 20.0195C15.3498 19.6208 14.8053 19.5577 14.2445 19.8226C13.6602 20.0986 13.3774 20.5855 13.3861 21.2775ZM28.2298 22.6016C28.9355 22.3547 29.3306 21.8526 29.3377 21.1937C29.3473 20.306 28.5979 19.6251 27.6726 19.6809C26.8606 19.7299 26.2158 20.5703 26.3513 21.403C26.4869 22.2366 27.3503 22.8043 28.2298 22.6016ZM7.71122 12.8718C7.93781 12.8861 8.00105 12.7768 7.90418 12.5862C7.81628 12.4133 7.68858 12.2662 7.53096 12.1477C7.40635 12.2015 7.31807 12.2735 7.27178 12.4003C7.38632 12.5727 7.53502 12.7111 7.71122 12.8718ZM8.54901 12.2686C8.54782 11.9923 8.33213 11.8711 8.17256 11.6959C8.07079 11.7783 7.99343 11.8409 7.91404 11.9052C7.96832 12.0828 8.10332 12.1864 8.21042 12.3102C8.32097 12.4379 8.42702 12.4329 8.54901 12.2686Z" fill="#4ADE80"/>
<path d="M13.9857 0.769291C15.4734 0.314764 16.9681 0.0539225 18.5051 -0.00161548C22.7057 -0.1534 26.503 1.00389 29.8445 3.54146C33.0879 6.00445 35.2772 9.20849 36.3195 13.1661C36.4925 13.8228 36.575 14.498 36.6862 15.1667C36.7426 15.5057 36.48 15.8519 36.1569 15.9234C35.7643 16.0102 35.4616 15.8568 35.3276 15.4899C35.2247 15.208 35.2212 14.9056 35.172 14.6128C34.6985 11.7898 33.4577 9.32866 31.618 7.16259C29.4936 4.66137 26.8543 2.92546 23.7018 1.99799C21.8159 1.44318 19.8855 1.2821 17.9241 1.4277C15.6288 1.59809 13.4833 2.25582 11.4749 3.36553C9.56625 4.42009 7.94082 5.8118 6.58712 7.52206C5.35456 9.07928 4.3847 10.7744 3.84666 12.698C3.75423 13.0284 3.57535 13.271 3.22428 13.3439C2.71873 13.4488 2.31628 13.0339 2.4417 12.5216C2.67953 11.55 3.03771 10.6206 3.48954 9.72919C4.29605 8.13801 5.33413 6.7038 6.55501 5.41129C8.5164 3.33483 10.8605 1.83514 13.5673 0.909441C13.6994 0.864257 13.8322 0.821165 13.9857 0.769291Z" fill="#4ADE80"/>
<path d="M25.6001 30.7397C23.4346 31.6779 21.1869 32.0795 18.8553 32.0256C18.0071 32.0059 17.1682 31.8854 16.3404 31.6988C15.6829 31.5506 15.4721 31.023 15.8926 30.4781C16.5461 29.6312 17.4005 29.0724 18.4665 28.8734C18.9633 28.7807 19.4694 28.7814 19.9705 28.7864C21.4619 28.8012 22.9529 28.8005 24.4444 28.7872C26.8498 28.7659 29.2556 28.7799 31.6613 28.7812C31.8099 28.7813 31.959 28.7962 32.1071 28.8119C32.4227 28.8453 32.6098 29.0398 32.6162 29.3341C32.6227 29.6291 32.4178 29.8664 32.1161 29.9088C32.0518 29.9179 31.9858 29.9189 31.9207 29.9173C30.4108 29.8802 28.9011 29.9986 27.3912 29.9231C27.2719 29.9171 27.1759 29.9689 27.0753 30.0184C26.5906 30.2572 26.1049 30.4938 25.6001 30.7397Z" fill="#4ADE80"/>
<path d="M11.0308 12.1555C11.2519 11.8668 11.5286 11.7529 11.87 11.7535C14.0149 11.7569 16.1598 11.7527 18.3047 11.7555C18.8504 11.7562 19.1722 12.0396 19.2491 12.585C19.2776 12.7868 19.2781 12.9935 19.2783 13.1979C19.279 14.3352 19.2778 15.4725 19.2729 16.6098C19.2707 17.1385 19.0214 17.5284 18.6187 17.5918C18.3442 17.635 18.0603 17.6466 17.7822 17.6346C16.2904 17.5703 14.7991 17.6465 13.3077 17.6383C12.7764 17.6354 12.2452 17.6207 11.7139 17.6113C11.2473 17.6031 10.8826 17.2879 10.8771 16.8155C10.8609 15.4174 10.8698 14.019 10.873 12.6207C10.8734 12.46 10.9393 12.3124 11.0308 12.1555ZM16.3486 15.7675C16.4963 15.662 16.5696 15.5155 16.5668 15.3372C16.5601 14.9097 16.5598 14.4815 16.5327 14.0551C16.5117 13.7267 16.3573 13.5762 16.0369 13.5709C15.395 13.5603 14.7525 13.5611 14.1105 13.5749C13.786 13.5818 13.5957 13.7913 13.5913 14.1095C13.5859 14.4909 13.5849 14.8726 13.5914 15.254C13.5983 15.6519 13.7797 15.842 14.1685 15.8455C14.7921 15.8512 15.4158 15.8443 16.0394 15.8413C16.1321 15.8408 16.2266 15.8422 16.3486 15.7675Z" fill="#4ADE80"/>
<path d="M22.4699 12.3662C23.6073 12.3663 24.717 12.3712 25.8267 12.3629C26.0789 12.3611 26.2833 12.4349 26.4508 12.6165C27.2471 13.4797 28.043 14.3433 28.8372 15.2084C28.9483 15.3294 29.033 15.4716 28.9583 15.6395C28.8763 15.824 28.7097 15.8747 28.5186 15.8746C26.4111 15.8732 24.3035 15.8752 22.1959 15.8712C21.806 15.8705 21.6148 15.7079 21.598 15.3214C21.5737 14.7634 21.5812 14.2036 21.5888 13.6448C21.5912 13.4679 21.6 13.2924 21.5847 13.1151C21.5363 12.557 21.7161 12.3648 22.2744 12.3666C22.3304 12.3667 22.3864 12.3664 22.4699 12.3662Z" fill="#4ADE80"/>
<path d="M6.34323 16.8529C6.21458 17.0662 6.10139 17.2345 5.83375 17.0434C5.55688 16.8458 5.5124 16.7443 5.70158 16.448C5.90171 16.1345 6.14105 15.842 6.06039 15.4318C6.04836 15.3706 6.07326 15.299 5.97474 15.2333C5.71213 15.4034 5.84269 15.7198 5.73369 15.9405C5.61502 16.1808 5.48616 16.416 5.35517 16.666C5.14303 16.5976 4.99702 16.4519 4.83218 16.3409C4.72625 16.2696 4.77898 16.1725 4.83775 16.0976C5.10175 15.7611 5.37002 15.4279 5.63641 15.0933C5.69476 15.02 5.76804 14.9846 5.85688 15.0248C6.28648 15.2192 6.73421 15.3773 7.14524 15.6457C6.90756 16.0723 6.62428 16.4498 6.34323 16.8529Z" fill="#4ADE80"/>
</g>
<path d="M48.905 23H45.6095L50.6308 8.45455H54.5939L59.6081 23H56.3126L52.6692 11.7784H52.5555L48.905 23ZM48.699 17.2827H56.4831V19.6832H48.699V17.2827ZM61.3588 23V8.45455H64.3844V13.9233H64.4767C64.6093 13.6297 64.801 13.3314 65.052 13.0284C65.3077 12.7206 65.6391 12.465 66.0463 12.2614C66.4582 12.053 66.9696 11.9489 67.5804 11.9489C68.3759 11.9489 69.1098 12.1572 69.7821 12.5739C70.4545 12.9858 70.9919 13.6084 71.3943 14.4418C71.7968 15.2704 71.998 16.3097 71.998 17.5597C71.998 18.7765 71.8015 19.804 71.4085 20.642C71.0203 21.4754 70.49 22.1075 69.8176 22.5384C69.15 22.9645 68.4019 23.1776 67.5733 23.1776C66.9862 23.1776 66.4867 23.0805 66.0747 22.8864C65.6675 22.6922 65.3337 22.4484 65.0733 22.1548C64.8129 21.8565 64.614 21.5559 64.4767 21.2528H64.3418V23H61.3588ZM64.3205 17.5455C64.3205 18.1941 64.4104 18.7599 64.5903 19.2429C64.7703 19.7259 65.0307 20.1023 65.3716 20.3722C65.7125 20.6373 66.1268 20.7699 66.6145 20.7699C67.1069 20.7699 67.5236 20.6349 67.8645 20.3651C68.2054 20.0904 68.4634 19.7116 68.6386 19.2287C68.8186 18.741 68.9085 18.1799 68.9085 17.5455C68.9085 16.9157 68.8209 16.3617 68.6457 15.8835C68.4706 15.4053 68.2125 15.0312 67.8716 14.7614C67.5307 14.4915 67.1117 14.3565 66.6145 14.3565C66.1221 14.3565 65.7054 14.4867 65.3645 14.7472C65.0283 15.0076 64.7703 15.3769 64.5903 15.8551C64.4104 16.3333 64.3205 16.8968 64.3205 17.5455ZM77.1276 23.206C76.4316 23.206 75.8113 23.0852 75.2668 22.8438C74.7223 22.5975 74.2915 22.2353 73.9742 21.7571C73.6617 21.2741 73.5055 20.6728 73.5055 19.9531C73.5055 19.3471 73.6167 18.8381 73.8393 18.4261C74.0618 18.0142 74.3648 17.6828 74.7484 17.4318C75.1319 17.1809 75.5675 16.9915 76.0552 16.8636C76.5476 16.7358 77.0637 16.6458 77.6035 16.5938C78.238 16.5275 78.7493 16.4659 79.1376 16.4091C79.5258 16.3475 79.8076 16.2576 79.9827 16.1392C80.1579 16.0208 80.2455 15.8456 80.2455 15.6136V15.571C80.2455 15.1212 80.1035 14.7732 79.8194 14.527C79.54 14.2808 79.1423 14.1577 78.6262 14.1577C78.0817 14.1577 77.6485 14.2784 77.3265 14.5199C77.0045 14.7566 76.7915 15.0549 76.6873 15.4148L73.889 15.1875C74.031 14.5246 74.3104 13.9517 74.7271 13.4688C75.1437 12.9811 75.6811 12.607 76.3393 12.3466C77.0022 12.0814 77.7692 11.9489 78.6404 11.9489C79.2465 11.9489 79.8265 12.0199 80.3805 12.1619C80.9392 12.304 81.434 12.5241 81.8648 12.8224C82.3005 13.1207 82.6437 13.5043 82.8947 13.973C83.1456 14.437 83.2711 14.9934 83.2711 15.642V23H80.4018V21.4872H80.3166C80.1414 21.8281 79.907 22.1288 79.6134 22.3892C79.3199 22.6449 78.9671 22.8461 78.5552 22.9929C78.1433 23.1349 77.6674 23.206 77.1276 23.206ZM77.9941 21.1179C78.4392 21.1179 78.8322 21.0303 79.1731 20.8551C79.514 20.6752 79.7815 20.4337 79.9756 20.1307C80.1698 19.8277 80.2668 19.4844 80.2668 19.1009V17.9432C80.1721 18.0047 80.0419 18.0616 79.8762 18.1136C79.7152 18.161 79.5329 18.206 79.3293 18.2486C79.1257 18.2865 78.9221 18.322 78.7185 18.3551C78.5149 18.3835 78.3303 18.4096 78.1646 18.4332C77.8094 18.4853 77.4993 18.5682 77.2342 18.6818C76.969 18.7955 76.763 18.9493 76.6163 19.1435C76.4695 19.3329 76.3961 19.5696 76.3961 19.8537C76.3961 20.2656 76.5452 20.5805 76.8435 20.7983C77.1466 21.0114 77.5301 21.1179 77.9941 21.1179ZM94.6951 15.2017L91.9252 15.3722C91.8779 15.1354 91.7761 14.9223 91.6198 14.733C91.4636 14.5388 91.2576 14.3849 91.0019 14.2713C90.751 14.1529 90.4503 14.0938 90.0999 14.0938C89.6312 14.0938 89.2358 14.1932 88.9139 14.392C88.5919 14.5862 88.4309 14.8466 88.4309 15.1733C88.4309 15.4337 88.5351 15.6539 88.7434 15.8338C88.9517 16.0137 89.3092 16.1581 89.8158 16.267L91.7903 16.6648C92.8509 16.8826 93.6416 17.233 94.1624 17.7159C94.6833 18.1989 94.9437 18.8333 94.9437 19.6193C94.9437 20.3343 94.733 20.9616 94.3116 21.5014C93.8949 22.0412 93.322 22.4626 92.5928 22.7656C91.8684 23.0639 91.0327 23.2131 90.0857 23.2131C88.6416 23.2131 87.491 22.9124 86.634 22.3111C85.7817 21.705 85.2822 20.8812 85.1354 19.8395L88.1113 19.6832C88.2013 20.1236 88.4191 20.4598 88.7647 20.6918C89.1103 20.919 89.5531 21.0327 90.0928 21.0327C90.6231 21.0327 91.0493 20.9309 91.3712 20.7273C91.6979 20.5189 91.8637 20.2514 91.8684 19.9247C91.8637 19.6501 91.7477 19.4252 91.5204 19.25C91.2931 19.0701 90.9427 18.9328 90.4692 18.8381L88.58 18.4616C87.5147 18.2486 86.7216 17.8793 86.2008 17.3537C85.6847 16.8281 85.4266 16.1581 85.4266 15.3438C85.4266 14.643 85.616 14.0393 85.9948 13.5327C86.3783 13.026 86.9157 12.6354 87.607 12.3608C88.3031 12.0862 89.1175 11.9489 90.0502 11.9489C91.4281 11.9489 92.5123 12.2401 93.3031 12.8224C94.0985 13.4048 94.5625 14.1979 94.6951 15.2017ZM102.651 12.0909V14.3636H96.0818V12.0909H102.651ZM97.5733 9.47727H100.599V19.6477C100.599 19.9271 100.641 20.1449 100.727 20.3011C100.812 20.4527 100.93 20.5592 101.082 20.6207C101.238 20.6823 101.418 20.7131 101.622 20.7131C101.764 20.7131 101.906 20.7012 102.048 20.6776C102.19 20.6491 102.299 20.6278 102.374 20.6136L102.85 22.8651C102.699 22.9124 102.486 22.9669 102.211 23.0284C101.936 23.0947 101.603 23.1349 101.21 23.1491C100.48 23.1776 99.8413 23.0805 99.292 22.858C98.7475 22.6354 98.3238 22.2898 98.0207 21.821C97.7177 21.3523 97.5686 20.7604 97.5733 20.0455V9.47727ZM109.477 23.2131C108.355 23.2131 107.389 22.9858 106.579 22.5312C105.774 22.072 105.154 21.4233 104.718 20.5852C104.283 19.7424 104.065 18.7457 104.065 17.5952C104.065 16.473 104.283 15.4882 104.718 14.6406C105.154 13.7931 105.767 13.1326 106.558 12.6591C107.353 12.1856 108.286 11.9489 109.356 11.9489C110.076 11.9489 110.746 12.0649 111.366 12.2969C111.991 12.5241 112.535 12.8674 112.999 13.3267C113.468 13.786 113.833 14.3636 114.093 15.0597C114.354 15.7509 114.484 16.5606 114.484 17.4886V18.3196H105.272V16.4446H111.636C111.636 16.009 111.541 15.6231 111.352 15.2869C111.162 14.9508 110.9 14.688 110.563 14.4986C110.232 14.3045 109.846 14.2074 109.406 14.2074C108.946 14.2074 108.539 14.3139 108.184 14.527C107.834 14.7353 107.559 15.017 107.36 15.3722C107.161 15.7225 107.06 16.1132 107.055 16.544V18.3267C107.055 18.8665 107.154 19.3329 107.353 19.7259C107.557 20.1188 107.843 20.4219 108.213 20.6349C108.582 20.848 109.02 20.9545 109.526 20.9545C109.863 20.9545 110.17 20.9072 110.45 20.8125C110.729 20.7178 110.968 20.5758 111.167 20.3864C111.366 20.197 111.517 19.965 111.622 19.6903L114.42 19.875C114.278 20.5473 113.987 21.1345 113.546 21.6364C113.111 22.1335 112.547 22.5218 111.856 22.8011C111.169 23.0758 110.376 23.2131 109.477 23.2131ZM121.387 23.2131C120.27 23.2131 119.309 22.9763 118.504 22.5028C117.704 22.0246 117.088 21.3617 116.657 20.5142C116.231 19.6667 116.018 18.6913 116.018 17.5881C116.018 16.4706 116.233 15.4905 116.664 14.6477C117.1 13.8002 117.718 13.1397 118.518 12.6662C119.318 12.188 120.27 11.9489 121.373 11.9489C122.325 11.9489 123.158 12.1217 123.873 12.4673C124.588 12.813 125.154 13.2983 125.57 13.9233C125.987 14.5483 126.217 15.2822 126.259 16.125H123.404C123.324 15.5805 123.111 15.1425 122.765 14.8111C122.424 14.4749 121.977 14.3068 121.423 14.3068C120.954 14.3068 120.544 14.4347 120.194 14.6903C119.848 14.9413 119.579 15.3082 119.384 15.7912C119.19 16.2741 119.093 16.8589 119.093 17.5455C119.093 18.2415 119.188 18.8333 119.377 19.321C119.571 19.8087 119.844 20.1804 120.194 20.4361C120.544 20.6918 120.954 20.8196 121.423 20.8196C121.768 20.8196 122.079 20.7486 122.353 20.6065C122.632 20.4645 122.862 20.2585 123.042 19.9886C123.227 19.714 123.347 19.3849 123.404 19.0014H126.259C126.212 19.8348 125.985 20.5687 125.578 21.2031C125.175 21.8329 124.619 22.3253 123.909 22.6804C123.198 23.0355 122.358 23.2131 121.387 23.2131ZM128.197 23V12.0909H131.222V23H128.197ZM129.716 10.6847C129.267 10.6847 128.881 10.5355 128.559 10.2372C128.242 9.93419 128.083 9.57197 128.083 9.15057C128.083 8.7339 128.242 8.37642 128.559 8.07812C128.881 7.77509 129.267 7.62358 129.716 7.62358C130.166 7.62358 130.55 7.77509 130.867 8.07812C131.189 8.37642 131.35 8.7339 131.35 9.15057C131.35 9.57197 131.189 9.93419 130.867 10.2372C130.55 10.5355 130.166 10.6847 129.716 10.6847ZM133.646 23V12.0909H136.529V14.0156H136.657C136.884 13.3764 137.263 12.8722 137.793 12.5028C138.324 12.1335 138.958 11.9489 139.697 11.9489C140.445 11.9489 141.082 12.1359 141.607 12.5099C142.133 12.8793 142.483 13.3812 142.659 14.0156H142.772C142.995 13.3906 143.397 12.8911 143.98 12.517C144.567 12.1383 145.26 11.9489 146.061 11.9489C147.079 11.9489 147.905 12.2732 148.539 12.9219C149.178 13.5658 149.498 14.4796 149.498 15.6634V23H146.48V16.2599C146.48 15.6539 146.319 15.1993 145.997 14.8963C145.675 14.5933 145.272 14.4418 144.789 14.4418C144.24 14.4418 143.811 14.617 143.504 14.9673C143.196 15.313 143.042 15.7699 143.042 16.3381V23H140.109V16.196C140.109 15.661 139.955 15.2348 139.647 14.9176C139.344 14.6004 138.944 14.4418 138.447 14.4418C138.111 14.4418 137.808 14.527 137.538 14.6974C137.273 14.8632 137.062 15.0975 136.906 15.4006C136.749 15.6989 136.671 16.0492 136.671 16.4517V23H133.646ZM156.86 23.2131C155.737 23.2131 154.771 22.9858 153.962 22.5312C153.157 22.072 152.537 21.4233 152.101 20.5852C151.665 19.7424 151.448 18.7457 151.448 17.5952C151.448 16.473 151.665 15.4882 152.101 14.6406C152.537 13.7931 153.15 13.1326 153.94 12.6591C154.736 12.1856 155.669 11.9489 156.739 11.9489C157.458 11.9489 158.128 12.0649 158.749 12.2969C159.374 12.5241 159.918 12.8674 160.382 13.3267C160.851 13.786 161.216 14.3636 161.476 15.0597C161.736 15.7509 161.867 16.5606 161.867 17.4886V18.3196H152.655V16.4446H159.019C159.019 16.009 158.924 15.6231 158.735 15.2869C158.545 14.9508 158.282 14.688 157.946 14.4986C157.615 14.3045 157.229 14.2074 156.788 14.2074C156.329 14.2074 155.922 14.3139 155.567 14.527C155.217 14.7353 154.942 15.017 154.743 15.3722C154.544 15.7225 154.442 16.1132 154.438 16.544V18.3267C154.438 18.8665 154.537 19.3329 154.736 19.7259C154.94 20.1188 155.226 20.4219 155.595 20.6349C155.965 20.848 156.403 20.9545 156.909 20.9545C157.245 20.9545 157.553 20.9072 157.833 20.8125C158.112 20.7178 158.351 20.5758 158.55 20.3864C158.749 20.197 158.9 19.965 159.004 19.6903L161.803 19.875C161.661 20.5473 161.369 21.1345 160.929 21.6364C160.494 22.1335 159.93 22.5218 159.239 22.8011C158.552 23.0758 157.759 23.2131 156.86 23.2131ZM166.867 16.6932V23H163.841V12.0909H166.725V14.0156H166.852C167.094 13.3812 167.499 12.8793 168.067 12.5099C168.635 12.1359 169.324 11.9489 170.134 11.9489C170.891 11.9489 171.552 12.1146 172.115 12.446C172.679 12.7775 173.117 13.2509 173.429 13.8665C173.742 14.4773 173.898 15.2064 173.898 16.054V23H170.872V16.5938C170.877 15.9261 170.707 15.4053 170.361 15.0312C170.015 14.6525 169.539 14.4631 168.933 14.4631C168.526 14.4631 168.166 14.5507 167.854 14.7259C167.546 14.901 167.305 15.1567 167.129 15.4929C166.959 15.8243 166.871 16.2244 166.867 16.6932ZM182.085 12.0909V14.3636H175.515V12.0909H182.085ZM177.007 9.47727H180.032V19.6477C180.032 19.9271 180.075 20.1449 180.16 20.3011C180.246 20.4527 180.364 20.5592 180.515 20.6207C180.672 20.6823 180.852 20.7131 181.055 20.7131C181.197 20.7131 181.339 20.7012 181.481 20.6776C181.623 20.6491 181.732 20.6278 181.808 20.6136L182.284 22.8651C182.132 22.9124 181.919 22.9669 181.645 23.0284C181.37 23.0947 181.036 23.1349 180.643 23.1491C179.914 23.1776 179.275 23.0805 178.726 22.858C178.181 22.6354 177.757 22.2898 177.454 21.821C177.151 21.3523 177.002 20.7604 177.007 20.0455V9.47727ZM188.868 23.2131C187.764 23.2131 186.81 22.9787 186.005 22.5099C185.205 22.0365 184.587 21.3783 184.152 20.5355C183.716 19.688 183.498 18.7055 183.498 17.5881C183.498 16.4612 183.716 15.4763 184.152 14.6335C184.587 13.786 185.205 13.1278 186.005 12.6591C186.81 12.1856 187.764 11.9489 188.868 11.9489C189.971 11.9489 190.923 12.1856 191.723 12.6591C192.528 13.1278 193.148 13.786 193.584 14.6335C194.019 15.4763 194.237 16.4612 194.237 17.5881C194.237 18.7055 194.019 19.688 193.584 20.5355C193.148 21.3783 192.528 22.0365 191.723 22.5099C190.923 22.9787 189.971 23.2131 188.868 23.2131ZM188.882 20.8693C189.384 20.8693 189.803 20.7273 190.139 20.4432C190.475 20.1544 190.728 19.7614 190.899 19.2642C191.074 18.767 191.162 18.2012 191.162 17.5668C191.162 16.9323 191.074 16.3665 190.899 15.8693C190.728 15.3722 190.475 14.9792 190.139 14.6903C189.803 14.4015 189.384 14.2571 188.882 14.2571C188.375 14.2571 187.949 14.4015 187.603 14.6903C187.263 14.9792 187.005 15.3722 186.829 15.8693C186.659 16.3665 186.574 16.9323 186.574 17.5668C186.574 18.2012 186.659 18.767 186.829 19.2642C187.005 19.7614 187.263 20.1544 187.603 20.4432C187.949 20.7273 188.375 20.8693 188.882 20.8693Z" fill="#4ADE80"/>
<defs>
<clipPath id="clip0_57_284">
<rect width="37.1337" height="32" fill="white"/>
</clipPath>
</defs>
</svg>
