<svg width="16" height="17" viewBox="0 0 16 17" fill="none" xmlns="http://www.w3.org/2000/svg">
<path d="M14.4324 13.75C13.4805 12.1044 12.0137 10.9244 10.3018 10.365C11.1486 9.8609 11.8065 9.09279 12.1744 8.17861C12.5424 7.26444 12.6001 6.25474 12.3387 5.30459C12.0773 4.35444 11.5112 3.51636 10.7274 2.91907C9.94359 2.32178 8.98538 1.99829 7.99993 1.99829C7.01447 1.99829 6.05626 2.32178 5.27244 2.91907C4.48863 3.51636 3.92255 4.35444 3.66114 5.30459C3.39973 6.25474 3.45744 7.26444 3.82542 8.17861C4.19339 9.09279 4.85128 9.8609 5.69805 10.365C3.98618 10.9237 2.5193 12.1037 1.56743 13.75C1.53252 13.8069 1.50936 13.8702 1.49933 13.9363C1.4893 14.0023 1.49259 14.0696 1.509 14.1343C1.52542 14.1991 1.55463 14.2598 1.59492 14.3131C1.63521 14.3663 1.68575 14.411 1.74357 14.4444C1.80138 14.4778 1.8653 14.4992 1.93155 14.5075C1.99781 14.5158 2.06505 14.5108 2.12931 14.4926C2.19358 14.4745 2.25356 14.4437 2.30573 14.402C2.3579 14.3604 2.40119 14.3087 2.43305 14.25C3.61055 12.215 5.6918 11 7.99993 11C10.3081 11 12.3893 12.215 13.5668 14.25C13.5987 14.3087 13.642 14.3604 13.6941 14.402C13.7463 14.4437 13.8063 14.4745 13.8705 14.4926C13.9348 14.5108 14.002 14.5158 14.0683 14.5075C14.1345 14.4992 14.1985 14.4778 14.2563 14.4444C14.3141 14.411 14.3646 14.3663 14.4049 14.3131C14.4452 14.2598 14.4744 14.1991 14.4908 14.1343C14.5073 14.0696 14.5106 14.0023 14.5005 13.9363C14.4905 13.8702 14.4673 13.8069 14.4324 13.75ZM4.49993 6.49999C4.49993 5.80776 4.7052 5.13107 5.08978 4.5555C5.47437 3.97992 6.02099 3.53132 6.66053 3.26641C7.30007 3.00151 8.00381 2.93219 8.68274 3.06724C9.36168 3.20229 9.98531 3.53563 10.4748 4.02512C10.9643 4.5146 11.2976 5.13824 11.4327 5.81718C11.5677 6.49611 11.4984 7.19984 11.2335 7.83938C10.9686 8.47892 10.52 9.02555 9.94442 9.41014C9.36885 9.79472 8.69216 9.99999 7.99993 9.99999C7.07197 9.999 6.18231 9.62993 5.52615 8.97377C4.86999 8.31761 4.50092 7.42794 4.49993 6.49999Z" fill="#7E7E7E"/>
</svg>
